HIERARCHY
ROOT RootJoint
{
    OFFSET   0.000000   0.000000   0.000000
    CHANNELS 6 Xposition Yposition Zposition Xrotation Yrotation Zrotation
    JOINT pelvis_lowerback
    {
        OFFSET   0.000000   0.093605   0.000000
        CHANNELS 3 Xrotation Yrotation Zrotation
        JOINT lowerback_torso
        {
            OFFSET   0.000000   0.100000   0.000000
            CHANNELS 3 Xrotation Yrotation Zrotation
            JOINT torso_head
            {
                OFFSET   0.000000   0.282350   0.000000
                CHANNELS 3 Xrotation Yrotation Zrotation
                End Site
                {
                    OFFSET   0.000000   0.192650   0.000000
                }
            }
            JOINT rTorso_Clavicle
            {
                OFFSET  -0.001000   0.157500   0.000000
                CHANNELS 3 Xrotation Yrotation Zrotation
                JOINT rShoulder
                {
                    OFFSET  -0.117647   0.000000   0.000000
                    CHANNELS 3 Xrotation Yrotation Zrotation
                    JOINT rElbow
                    {
                        OFFSET  -0.245000   0.000000   0.000000
                        CHANNELS 3 Xrotation Yrotation Zrotation
                        JOINT rWrist
                        {
                            OFFSET  -0.240000   0.000000   0.000000
                            CHANNELS 3 Xrotation Yrotation Zrotation
                            End Site
                            {
                                OFFSET  -0.116353  -0.002500   0.000000
                            }
                        }
                    }
                }
            }
            JOINT lTorso_Clavicle
            {
                OFFSET   0.001000   0.157500   0.000000
                CHANNELS 3 Xrotation Yrotation Zrotation
                JOINT lShoulder
                {
                    OFFSET   0.117647   0.000000   0.000000
                    CHANNELS 3 Xrotation Yrotation Zrotation
                    JOINT lElbow
                    {
                        OFFSET   0.245000   0.000000   0.000000
                        CHANNELS 3 Xrotation Yrotation Zrotation
                        JOINT lWrist
                        {
                            OFFSET   0.240000   0.000000   0.000000
                            CHANNELS 3 Xrotation Yrotation Zrotation
                            End Site
                            {
                                OFFSET   0.116353  -0.002500   0.000000
                            }
                        }
                    }
                }
            }
        }
    }
    JOINT rHip
    {
        OFFSET  -0.100000  -0.051395   0.000000
        CHANNELS 3 Xrotation Yrotation Zrotation
        JOINT rKnee
        {
            OFFSET   0.000000  -0.410000   0.000000
            CHANNELS 3 Xrotation Yrotation Zrotation
            JOINT rAnkle
            {
                OFFSET   0.000000  -0.390000   0.000000
                CHANNELS 3 Xrotation Yrotation Zrotation
                JOINT rToeJoint
                {
                    OFFSET   0.000000  -0.050000   0.130000
                    CHANNELS 3 Xrotation Yrotation Zrotation
                    End Site
                    {
                        OFFSET  -0.010000   0.002000   0.060000
                    }
                }
            }
        }
    }
    JOINT lHip
    {
        OFFSET   0.100000  -0.051395   0.000000
        CHANNELS 3 Xrotation Yrotation Zrotation
        JOINT lKnee
        {
            OFFSET   0.000000  -0.410000   0.000000
            CHANNELS 3 Xrotation Yrotation Zrotation
            JOINT lAnkle
            {
                OFFSET   0.000000  -0.390000   0.000000
                CHANNELS 3 Xrotation Yrotation Zrotation
                JOINT lToeJoint
                {
                    OFFSET   0.000000  -0.050000   0.130000
                    CHANNELS 3 Xrotation Yrotation Zrotation
                    End Site
                    {
                        OFFSET   0.010000   0.002000   0.060000
                    }
                }
            }
        }
    }
}
MOTION
Frames: 8
Frame Time:   0.008333
 -2.376968   0.903566   4.675519  -1.107454   1.758622  -0.295367   5.606296  -2.136068  -2.883882   0.592409  -1.728370   1.766830  -1.432271   0.203319   2.583499   2.143506  -1.669374   8.338831   7.054049  10.499351  47.799727  -0.000447  18.631967   0.001181   6.650520   3.277861   4.272571   0.339813  -1.475155  -6.903725   3.621057 -17.146219 -46.063866   0.000167 -18.177885  -0.000190   8.237227  -4.496185  -2.433562 -23.011251   1.146989  -6.426377  18.976112  -0.002774  -0.013753  -5.787455  -5.494150   5.497518  -1.546794  -0.000245   0.000615   5.604660  -2.976937  -1.524435  13.238736   0.000004  -0.000188 -16.600696  -4.885498   2.156542  -1.461401   0.000003  -0.000003
 -2.377920   0.902688   4.680876  -1.125867   1.987227  -0.239931   5.649883  -2.173375  -2.892678   0.625450  -1.745579   1.708987  -1.428286   0.157143   2.493943   2.178415  -1.730489   8.363469   7.158635  10.354504  47.803087  -0.000469  18.307057   0.001262   6.629725   3.303504   4.298890   0.386061  -1.444881  -6.916146   3.675266 -17.210481 -46.115451   0.000127 -18.172711  -0.000150   8.248725  -4.507366  -2.473423 -23.115753   1.193471  -6.545509  17.711041  -0.002519  -0.013416  -5.610966  -5.444321   5.540065  -1.538913  -0.000204   0.000519   5.987215  -3.044529  -1.460364  13.238659   0.000003  -0.000151 -16.894452  -5.052436   2.078227  -1.570156   0.000005  -0.000002
 -2.378896   0.901749   4.686300  -1.142546   2.217125  -0.174659   5.688265  -2.207889  -2.900236   0.661320  -1.764235   1.652356  -1.426985   0.113001   2.407754   2.222856  -1.797418   8.387326   7.267226  10.208756  47.803575  -0.000511  17.994444   0.001331   6.613087   3.278177   4.324764   0.436828  -1.411139  -6.930489   3.731700 -17.266876 -46.166692   0.000093 -18.165046  -0.000117   8.262595  -4.506388  -2.532052 -23.222642   1.242576  -6.682623  16.523548  -0.002336  -0.012973  -5.445994  -5.397735   5.579329  -1.527973  -0.000174   0.000451   6.368777  -3.113690  -1.402165  13.245349   0.000000  -0.000110 -17.194060  -5.215531   1.997145  -1.684547   0.000006  -0.000006
 -2.379910   0.900772   4.691782  -1.155166   2.440026  -0.103678   5.722790  -2.239160  -2.906999   0.698247  -1.781895   1.599252  -1.426620   0.071956   2.327389   2.271433  -1.866656   8.410648   7.374618  10.067298  47.804218  -0.000563  17.699109   0.001374   6.599015   3.229462   4.352413   0.489894  -1.374206  -6.946494   3.788895 -17.315786 -46.215893   0.000064 -18.155675  -0.000090   8.276320  -4.494695  -2.596074 -23.334211   1.292349  -6.825517  15.412756  -0.002139  -0.012392  -5.292131  -5.354250   5.615591  -1.518056  -0.000149   0.000392   6.745986  -3.181938  -1.345769  13.259250  -0.000004  -0.000065 -17.490412  -5.371641   1.913649  -1.817449   0.000007  -0.000010
 -2.380968   0.899772   4.697316  -1.161914   2.653787  -0.028912   5.753695  -2.267532  -2.912660   0.734963  -1.798029   1.550213  -1.426710   0.033726   2.252596   2.321004  -1.935512   8.433868   7.478308   9.932170  47.805730  -0.000618  17.421566   0.001393   6.586451   3.170682   4.381813   0.543728  -1.335563  -6.963221   3.845735 -17.358557 -46.262698   0.000041 -18.145210  -0.000068   8.289794  -4.474805  -2.661932 -23.449230   1.341543  -6.968282  14.374320  -0.001909  -0.011708  -5.148654  -5.313641   5.649143  -1.509475  -0.000127   0.000339   7.116567  -3.247943  -1.289389  13.280129  -0.000012  -0.000020 -17.777085  -5.519338   1.828187  -1.977475   0.000007  -0.000016
 -2.382075   0.898757   4.702900  -1.161123   2.857999   0.048678   5.780754  -2.293271  -2.916968   0.770275  -1.812582   1.505311  -1.427079  -0.001926   2.182958   2.369797  -2.002447   8.456952   7.577066   9.804261  47.808216  -0.000671  17.161499   0.001392   6.574873   3.108243   4.412524   0.597122  -1.296429  -6.979985   3.901314 -17.396385 -46.306989   0.000022 -18.134191  -0.000050   8.302982  -4.449279  -2.728219 -23.566040   1.389537  -7.107700  13.403891  -0.001648  -0.010961  -5.014876  -5.275701   5.680224  -1.502262  -0.000108   0.000292   7.478820  -3.311244  -1.232208  13.307320  -0.000021   0.000025 -18.050182  -5.658387   1.741118  -2.169336   0.000008  -0.000023
 -2.383231   0.897732   4.708536  -1.151338   3.052761   0.128622   5.803627  -2.316570  -2.919785   0.803182  -1.825618   1.464439  -1.427677  -0.035192   2.118100   2.416765  -2.066586   8.479647   7.670306   9.683883  47.811520  -0.000719  16.918258   0.001376   6.563992   3.045571   4.443965   0.649181  -1.257682  -6.996297   3.954977 -17.430215 -46.348714   0.000009 -18.123035  -0.000036   8.315837  -4.420286  -2.793975 -23.683016   1.435980  -7.241949  12.497371  -0.001365  -0.010184  -4.890141  -5.240244   5.709041  -1.496348  -0.000092   0.000249   7.831503  -3.371691  -1.173954  13.340019  -0.000032   0.000068 -18.307625  -5.788969   1.652730  -2.395141   0.000008  -0.000034
 -2.384502   0.896673   4.714341  -1.162366   3.307488   0.186613   5.817985  -2.361878  -2.900254   0.855500  -1.851832   1.431062  -1.426980  -0.085072   2.037688   2.469278  -2.146551   8.503821   7.757602   9.553444  47.821564  -0.000837  16.573358   0.001440   6.574319   3.065538   4.493104   0.709436  -1.217289  -7.008740   4.039642 -17.517653 -46.394582  -0.000068 -18.048898  -0.000027   8.340377  -4.419176  -2.849525 -23.790465   1.404480  -7.353148  11.839717  -0.000955  -0.009117  -4.707555  -5.300720   5.667998  -1.484693  -0.000077   0.000216   8.199083  -3.472160  -1.069984  13.402243  -0.000060   0.000156 -18.587452  -5.933921   1.549508  -2.623362   0.000009  -0.000042
